<?xml version="1.0" encoding="UTF-8" standalone="no"?>
<!-- Created with Inkscape (http://www.inkscape.org/) -->

<svg
   width="64px"
   height="64px"
   id="svg2980"
   sodipodi:version="0.32"
   inkscape:version="1.4 (e7c3feb1, 2024-10-09)"
   sodipodi:docname="EPWorkbench.svg"
   inkscape:output_extension="org.inkscape.output.svg.inkscape"
   version="1.1"
   inkscape:export-filename="/home/you/freecaddev/freecadandsource/icons_for_keith/wb_icon/GDML_WB_multi_blackline.png"
   inkscape:export-xdpi="96"
   inkscape:export-ydpi="96"
   xml:space="preserve"
   xmlns:inkscape="http://www.inkscape.org/namespaces/inkscape"
   xmlns:sodipodi="http://sodipodi.sourceforge.net/DTD/sodipodi-0.dtd"
   xmlns:xlink="http://www.w3.org/1999/xlink"
   xmlns="http://www.w3.org/2000/svg"
   xmlns:svg="http://www.w3.org/2000/svg"
   xmlns:rdf="http://www.w3.org/1999/02/22-rdf-syntax-ns#"
   xmlns:cc="http://creativecommons.org/ns#"
   xmlns:dc="http://purl.org/dc/elements/1.1/"><defs
     id="defs2982"><linearGradient
       inkscape:collect="always"
       id="linearGradient3794"><stop
         style="stop-color:#000000;stop-opacity:1;"
         offset="0"
         id="stop3796" /><stop
         style="stop-color:#000000;stop-opacity:0;"
         offset="1"
         id="stop3798" /></linearGradient><linearGradient
       id="linearGradient3864"><stop
         id="stop3866"
         offset="0"
         style="stop-color:#71b2f8;stop-opacity:1;" /><stop
         id="stop3868"
         offset="1"
         style="stop-color:#002795;stop-opacity:1;" /></linearGradient><inkscape:perspective
       sodipodi:type="inkscape:persp3d"
       inkscape:vp_x="0 : 32 : 1"
       inkscape:vp_y="0 : 1000 : 0"
       inkscape:vp_z="64 : 32 : 1"
       inkscape:persp3d-origin="32 : 21.333333 : 1"
       id="perspective2988" /><radialGradient
       inkscape:collect="always"
       xlink:href="#linearGradient3794"
       id="radialGradient3800"
       cx="1"
       cy="45"
       fx="1"
       fy="45"
       r="41"
       gradientTransform="matrix(0.93348213,-2.2905276e-8,0,0.28687573,0.06651751,32.090592)"
       gradientUnits="userSpaceOnUse" /></defs><sodipodi:namedview
     id="base"
     pagecolor="#ffffff"
     bordercolor="#666666"
     borderopacity="1.0"
     inkscape:pageopacity="0.0"
     inkscape:pageshadow="2"
     inkscape:zoom="15.545011"
     inkscape:cx="37.536159"
     inkscape:cy="22.097122"
     inkscape:current-layer="layer1"
     showgrid="true"
     inkscape:document-units="px"
     inkscape:grid-bbox="true"
     inkscape:window-width="1472"
     inkscape:window-height="840"
     inkscape:window-x="0"
     inkscape:window-y="38"
     inkscape:snap-bbox="true"
     inkscape:snap-nodes="false"
     inkscape:window-maximized="1"
     inkscape:showpageshadow="2"
     inkscape:pagecheckerboard="0"
     inkscape:deskcolor="#d1d1d1"
     showguides="true"><inkscape:grid
       type="xygrid"
       id="grid2991"
       empspacing="2"
       visible="true"
       enabled="true"
       snapvisiblegridlinesonly="true"
       originx="0"
       originy="0"
       spacingy="1"
       spacingx="1"
       units="px" /></sodipodi:namedview><metadata
     id="metadata2985"><rdf:RDF><cc:Work
         rdf:about=""><dc:format>image/svg+xml</dc:format><dc:type
           rdf:resource="http://purl.org/dc/dcmitype/StillImage" /><dc:creator><cc:Agent><dc:title>[wmayer]</dc:title></cc:Agent></dc:creator><dc:title>Part_Box</dc:title><dc:date>2011-10-10</dc:date><dc:relation>http://www.freecadweb.org/wiki/index.php?title=Artwork</dc:relation><dc:publisher><cc:Agent><dc:title>FreeCAD</dc:title></cc:Agent></dc:publisher><dc:identifier>FreeCAD/src/Mod/Part/Gui/Resources/icons/Part_Box.svg</dc:identifier><dc:rights><cc:Agent><dc:title>FreeCAD LGPL2+</dc:title></cc:Agent></dc:rights><cc:license>https://www.gnu.org/copyleft/lesser.html</cc:license><dc:contributor><cc:Agent><dc:title>[agryson] Alexander Gryson</dc:title></cc:Agent></dc:contributor></cc:Work></rdf:RDF></metadata><g
     id="layer1"
     inkscape:label="Layer 1"
     inkscape:groupmode="layer"><path
       d="M 19.314639,39.007298 V 35.78095 h 0.762238 c 0.834275,0 1.24622,0.175375 1.24622,1.624409 0,1.38272 -0.401725,1.601939 -1.24622,1.601939 z m -2.379026,8.692012 h 2.379026 v -4.828287 h 1.421449 c 1.853834,0 2.852787,-1.953237 2.852787,-5.465664 0,-1.997628 -0.329523,-3.446114 -1.019559,-4.433694 -0.607779,-0.856048 -1.441889,-1.053892 -2.585081,-1.053892 h -3.048622 z m 6.920639,-15.781537 h 2.379026 v 11.589532 h 3.234072 v 4.192005 h -5.613098 z m 8.130263,0 v 9.723434 c 0,1.734018 0.285509,2.502379 1.131818,2.502379 0.846308,0 1.111377,-0.768361 1.111377,-2.502379 v -9.723434 h 2.355289 v 10.118576 c 0,3.950864 -1.203031,6.101946 -3.466666,6.101946 -2.263471,0 -3.487107,-2.151082 -3.487107,-6.101946 V 31.917773 Z m 7.14598,10.865015 c 0.123633,1.163502 0.442936,1.602486 1.091761,1.602486 0.576789,0 0.896091,-0.460906 0.896091,-1.14158 0,-0.987579 -0.432715,-1.075266 -1.308036,-1.558095 -1.029944,-0.570516 -1.699375,-1.053345 -2.008292,-1.514799 -0.576789,-0.87797 -0.85488,-2.084768 -0.85488,-3.643411 0,-3.050973 1.132807,-5.026131 3.110273,-5.026131 1.915651,0 3.038237,1.777861 3.17209,4.960365 h -2.255558 c -0.0722,-0.943735 -0.380954,-1.382172 -0.957907,-1.382172 -0.504752,0 -0.751853,0.351297 -0.751853,1.075266 0,0.834127 0.381119,0.98758 1.101981,1.382721 0.916696,0.50475 1.647944,0.812204 2.121705,1.492878 0.648825,0.921813 0.947522,2.063393 0.947522,3.687254 0,3.42474 -1.153577,5.421821 -3.316328,5.421821 -1.987852,0 -3.16187,-1.997629 -3.306108,-5.355507 h 2.317539 z m 7.540287,4.54385 c 0,-2.305082 0.64965,-4.148161 1.938564,-6.145241 1.099014,-1.712645 1.888616,-2.305082 1.888616,-3.885099 0,-1.229268 -0.319797,-1.953785 -0.849441,-1.953785 -0.65954,0 -0.979337,0.922362 -0.979337,2.787363 v 0.263062 H 46.8129 c 0,-0.153453 -0.01006,-0.306906 -0.01006,-0.438985 0,-3.797412 1.11929,-6.080024 2.957793,-6.080024 1.718662,0 2.777784,2.041472 2.777784,4.982836 0,2.348377 -0.509533,3.335956 -1.489035,4.652911 -0.489421,0.658752 -1.078903,1.317503 -1.668549,2.414692 h 3.137473 v 3.774942 h -5.835307 c 0,-0.131532 -0.01022,-0.241141 -0.01022,-0.372672 z m 7.639194,-6.321712 1.68866,-4.499459 v 4.499459 z m 1.638712,6.694384 h 1.998402 v -3.204426 h 0.829494 V 41.004926 H 57.94909 v -8.692012 h -1.948454 l -3.267535,8.450872 v 3.731098 h 3.217587 z M 26.017025,8.7666591 h 2.038953 l 1.87922,10.4309619 c 0.07286,0.483925 0.06742,0.102485 0.0966,-0.486665 l 0.412769,-9.9442969 h 2.150552 L 31.527095,28.935854 H 29.395829 L 27.89097,18.444058 c -0.04846,-0.3365 -0.155283,-0.44885 -0.18446,0.112349 l -0.524204,10.379447 h -2.213853 z m 15.025351,7.8852879 0.156107,-3.830294 0.989393,0.01534 c 0.611735,0 0.893289,0.4768 0.893289,1.73895 0,1.458899 -0.320292,2.075999 -0.980656,2.075999 z m -2.917571,12.283907 h 2.155333 l 0.378482,-7.265448 h 0.572997 c 0.805921,0 1.088299,0.543113 1.1455,2.328648 0.03495,1.089516 -0.183307,3.833583 -0.11638,4.9368 h 2.359245 v -0.533249 c -0.145557,-0.139752 -0.213638,-0.44885 -0.213638,-0.982099 0,-0.224151 0.0097,-0.44885 0.01945,-0.673549 0,0 0.171108,-3.354042 0.146711,-4.403003 -0.04138,-1.789918 -0.155283,-2.203693 -0.776744,-2.905192 0.873837,-1.06595 1.359467,-3.60176 1.359467,-6.294858 0,-3.3085549 -0.409307,-4.3777929 -2.758662,-4.3777929 h -3.233082 z"
       fill="#bbbcbf"
       id="path1"
       style="stroke-width:0.30057" /><path
       d="m 49.843718,27.421054 c -0.49519,1.3745 -1.126213,2.075999 -1.922408,2.075999 -1.835042,0 -3.029171,-3.759049 -3.029171,-9.397348 0,-3.366099 0.442936,-6.359527 1.064232,-8.407576 0.738006,-2.4404491 1.802897,-3.2630663 2.985652,-3.4702278 1.844932,-0.3227992 3.228466,1.8562328 2.998839,7.5016558 h -2.068131 c -0.09693,-1.598651 -0.524203,-2.524849 -1.135939,-2.524849 -0.97093,0 -1.640856,2.749548 -1.640856,7.097198 0,2.748999 0.427276,4.235849 1.233032,4.235849 0.524204,0 0.961205,-0.78535 1.242758,-2.2722 h -0.961204 l 0.232924,-4.151997 h 3.039061 l -0.572832,10.828296 h -1.417492 z"
       fill="#bbbcbf"
       id="path2"
       style="stroke-width:0.30057" /><path
       d="M 53.411928,21.558604 51.649748,8.7666591 h 2.388422 l 0.851089,6.0728989 c 0.02423,0 -0.0048,0.472964 0.07286,0.08056 l 1.374797,-6.1540099 h 2.54387 L 55.645233,21.586007 55.276147,28.935854 H 53.052898 Z M 33.159049,8.7502177 h 5.56826 l -0.25254,4.7965003 h -3.393311 l -0.155283,2.776949 h 2.864162 l -0.252541,4.488498 H 34.68336 l -0.145557,3.2258 h 3.427433 l -0.242815,4.880899 h -5.631395 z m -13.43197,8.0557303 h 5.030869 l 0.02604,-0.465291 h -2.864162 l 0.02176,-0.388565 h -2.169345 z m 5.913937,-6.520653 h -5.568754 l -0.04533,0.853308 h 5.569249 z m -6.002623,8.195482 h 5.025264 l -0.04813,0.853856 h -5.022298 z m -0.33315,6.290474 h 5.617878 l -0.09577,1.928026 H 19.20304 l -0.04517,0.853856 h 5.626944 l -0.06874,1.382721 0.242651,-4.880899 h -3.427434 l 0.0063,-0.137012 H 19.35041 Z m 0.614208,-11.600493 -0.04517,0.853308 h 2.175115 l 0.02571,-0.460359 h 3.393311 l 0.02077,-0.392949 z"
       fill="#bbbcbf"
       id="path3"
       style="stroke-width:0.30057" /><path
       fill="#929496"
       d="m 25.596179,11.138603 -0.0661,1.253929 z m -3.919163,9.690552 -0.02522,0.560103 z m 2.938507,-1.494522 -0.08391,1.494522 z"
       id="path4"
       style="stroke-width:0.30057" /><path
       d="m 17.24453,27.451196 -0.01632,0.333761 0.806086,0.111253 0.769656,0.500914 0.280894,0.53873 h 5.63123 l 0.06874,-1.382721 H 19.157873 Z M 25.720801,8.7666591 h -5.568096 l -1.900979,-0.00822 -0.02258,0.4061022 0.809053,-0.015893 0.769821,0.5003661 0.264245,0.6362816 h 5.568754 z M 25.596179,11.138603 H 20.02693 l -1.910541,-0.0433 -0.0178,0.389113 0.805757,0.0559 0.753007,0.778773 0.262101,0.851664 h 5.569744 z m -3.982957,11.104511 h -2.174126 l -1.915485,-0.02137 -0.01681,0.389113 0.812021,0.0559 0.769656,0.612167 0.261936,0.639022 h 2.187148 z m 3.144726,-5.437166 h -5.030869 l -1.907244,-0.09207 -0.01978,0.445014 0.819933,5.48e-4 0.769656,0.611619 0.24875,0.70972 h 5.025264 z m -3.080932,4.023207 h 2.854601 l 0.08391,-1.494522 h -5.022298 l -1.918452,0.04987 -0.01665,0.389113 h 0.794547 l 0.769656,0.945928 0.261937,0.669712 h 2.167531 z m 0.372383,-6.805089 -4.089776,0.01973 -0.01665,0.389661 0.794052,0.05535 0.78647,0.723421 0.24875,0.739862 h 2.169345 z m 2.873722,10.747185 h -5.617878 l -1.914496,-0.04604 -0.01665,0.33376 0.794052,0.111253 0.769656,0.945928 0.265234,0.583121 h 5.624307 z m 0.04533,4.164603 h 2.213853 l 0.06973,-1.382721 H 25.04049 Z m 2.922517,-10.491796 0.0053,0.03672 H 29.80629 L 29.504461,16.8054 h -3.905315 l -0.08704,1.675377 h 2.200501 c 0.03478,-0.465291 0.132369,-0.355682 0.178361,-0.03672 z m 4.144504,0.890575 H 30.00163 c -0.0089,0.0992 -0.0206,0.11509 -0.04335,0 h -1.939552 l 0.294741,2.054625 h 3.613212 z m 0.179185,-3.382541 0.102038,-1.928026 H 30.22631 l -0.07995,1.928026 z m -4.547382,3.382541 H 25.4676 l -0.106653,2.054625 h 2.202478 z m 4.502215,-2.528685 h -2.05857 l -0.06956,1.674829 h 2.039283 z m -3.370892,7.965303 0.276608,1.928026 h 2.570245 l 0.102038,-1.928026 z m 3.79652,-16.0045919 h -2.150552 l -0.06297,1.5186359 h 2.13308 z m -4.53914,0 h -2.038953 l -0.07879,1.5186359 h 2.391554 z m -2.871085,16.0045919 -0.10006,1.928026 h 2.210391 l 0.09742,-1.928026 z m 2.335343,-2.528137 h -2.203797 l -0.08704,1.674829 h 2.206435 z m 1.329301,-9.072356 -0.366118,-2.032155 h -2.589697 l -0.1055,2.032155 z m 3.512327,0 0.107643,-2.032155 h -2.123353 l -0.0844,2.032155 z m -3.926085,9.072356 0.240342,1.674829 h 3.116702 l 0.08869,-1.674829 z m 0.567557,-8.219048 h -3.259457 l -0.10039,1.928026 h 3.707173 z m 0.392493,14.911788 h 2.131266 l 0.07319,-1.382721 h -2.402764 z m 15.176843,-6.591352 -0.0028,-0.101936 H 42.11848 c 0.150008,0.350749 0.22633,0.887835 0.255343,1.675377 H 44.5463 c 0.02126,-0.639022 0.03429,-1.229816 0.02637,-1.573441 z m -3.388365,-9.173744 0.01418,-0.349105 0.989393,0.01534 c 0.281059,0 0.491399,0.102484 0.637946,0.333212 H 45.1549 l 3.3e-4,-0.02631 c 0,-0.791927 -0.02407,-1.454515 -0.09182,-2.005849 h -6.022075 l -0.104676,2.032155 h 2.247646 z m 1.07643,15.765096 h 2.359245 v -0.533249 c -0.132864,-0.127695 -0.20045,-0.39843 -0.21133,-0.849472 h -2.144453 c -0.01764,0.551335 -0.0239,1.044576 -0.0035,1.382721 z m -4.135932,0 h 2.155333 l 0.07204,-1.382721 h -2.156322 z m 2.946089,-12.983762 0.07863,-1.928026 h -2.256713 l -0.0994,1.928026 z m 1.848724,0 h 2.04736 a 1.9682354,6.543671 0 0 0 0.169789,-1.928026 h -2.078845 c 0.015,0.164962 0.02341,0.346913 0.02341,0.551882 -1.65e-4,0.594082 -0.05407,1.04622 -0.161712,1.376144 z m -4.406276,5.437166 h 6.019273 c -0.07187,-1.017174 -0.245453,-1.395325 -0.736852,-1.949948 0.02654,-0.03233 0.05143,-0.07015 0.07698,-0.104677 H 38.61917 Z m 3.860148,3.381993 c -0.01451,0.562843 -0.04813,1.253381 -0.07665,1.928026 h 2.131431 c 0.0099,-0.198393 0.05061,-1.02375 0.08671,-1.928026 z m -3.710305,-6.290474 h 5.672771 A 1.9990612,6.6461557 0 0 0 44.821751,16.8054 h -6.072188 z m 3.733548,-9.7141179 h -3.233082 l -0.0783,1.5186359 h 5.810251 C 44.566408,9.1798859 43.856096,8.7666591 42.396733,8.7666591 Z m -3.927404,13.4764549 -0.08621,1.674829 h 2.158466 l 0.0872,-1.674829 z m -0.130227,2.528137 -0.09924,1.928026 h 2.156817 l 0.10039,-1.928026 z m 11.553081,4.164603 h 1.417492 l 0.07335,-1.382721 h -1.535026 z m -1.970873,0.561199 c 0.768996,0 1.38271,-0.660944 1.869988,-1.94392 h -3.840037 c 0.508378,1.245161 1.179458,1.94392 1.970049,1.94392 z m -0.731248,-7.253939 h -2.235447 c 0.03544,0.586957 0.08539,1.147061 0.149513,1.675377 h 2.48156 c -0.182977,-0.38418 -0.315017,-0.94812 -0.395626,-1.675377 z m -2.275504,-0.853856 h 2.208248 a 1.97928,6.5803901 0 0 1 -0.02687,-1.093352 c 0,-0.33102 0.0051,-0.649435 0.01269,-0.961273 h -2.208248 c -0.0049,0.252649 -0.0084,0.507491 -0.0084,0.765072 0,0.441726 0.0082,0.871394 0.02258,1.289553 z m 3.744922,0 h 3.049447 l 0.108632,-2.054625 h -3.042853 z m 3.223027,-3.2817 h -3.038896 l -0.02094,0.373219 h 3.040215 z m -6.954926,0.373219 h 2.212863 a 2.6160717,8.6974924 0 0 1 0.13204,-1.675377 h -2.235117 c -0.0483,0.542018 -0.08523,1.101573 -0.109786,1.675377 z M 48.942023,8.2219012 c -0.917191,0.1605776 -1.76284,0.6954706 -2.440843,2.0633938 h 4.931139 C 50.893444,8.6669147 49.992902,8.0377577 48.942023,8.2219012 Z M 45.12325,15.952092 h 2.267592 c 0.132699,-0.811656 0.305785,-1.464379 0.512664,-1.928026 h -2.496559 a 3.6150254,12.018652 0 0 0 -0.283697,1.928026 z m 0.453815,-2.781334 h 6.347642 c -0.04797,-0.772197 -0.136985,-1.449034 -0.262266,-2.032155 h -5.52161 c -0.0633,0.175375 -0.125281,0.357326 -0.18446,0.552978 a 3.5937606,11.947954 0 0 0 -0.379306,1.479177 z m 4.295666,2.552799 h 2.068131 a 2.5023295,8.3193406 0 0 0 0.01846,-1.699491 h -2.394851 c 0.15858,0.421447 0.265563,0.994704 0.308258,1.699491 z m -1.262044,6.535998 h 0.961204 c -0.13682,0.722873 -0.311225,1.276948 -0.513818,1.658388 h 2.51733 l 0.08869,-1.675377 H 48.61184 Z m -3.386717,2.511696 a 2.4977139,8.3039953 0 0 0 0.429583,1.928026 h 5.77448 l 0.102038,-1.928026 z m 7.828764,4.164603 h 2.223248 l 0.0694,-1.382721 H 53.11999 Z M 54.03817,8.7666591 h -2.388422 l 0.209351,1.5186359 h 2.391884 z m 1.124235,5.2574069 -0.200285,0.896055 c -0.07764,0.392401 -0.04863,-0.08056 -0.07286,-0.08056 l -0.114237,-0.815492 h -2.400951 l 0.265729,1.928026 h 4.427376 l 0.486619,-1.928026 z m -2.17429,4.456711 H 56.4289 l 0.422825,-1.674829 h -4.094557 z m 0.308917,5.437166 h 2.230997 l 0.08407,-1.674829 H 53.37863 Z m 0.09165,-2.528685 h 2.306166 l 0.518598,-2.054625 h -3.107801 z m -0.227155,5.310019 h 2.226876 l 0.09676,-1.928026 h -2.229678 z m 2.191434,-13.528519 h 2.416281 l 0.512665,-2.032155 h -2.47513 z m -0.697619,0 -0.284685,-2.032155 H 51.97663 l 0.279905,2.032155 z m 4.225442,-4.4040989 h -2.54387 l -0.339248,1.5186359 h 2.499692 z m -26.436171,13.4764549 -0.08885,1.674829 h 2.187313 l 0.07566,-1.674829 z m -0.133853,2.528137 -0.102203,1.928026 h 5.624307 l 0.09577,-1.928026 z m 5.227033,-3.959086 0.08308,-1.477532 H 32.59858 l -0.108797,2.054625 h 2.167532 l 0.02605,-0.577093 z M 38.727309,8.7502177 h -5.56826 l -0.08127,1.5350773 h 5.56859 z m -1.058297,9.7305593 0.09413,-1.674829 h -5.03054 l -0.08869,1.674829 z m -2.722067,-2.528685 0.107808,-1.928026 h -2.174949 l -0.102039,1.928026 z m -2.855919,12.96732 h 5.631395 l 0.06792,-1.366279 h -5.626945 z m 6.403524,-15.748654 0.106983,-2.032155 h -5.568919 l -0.107643,2.032155 z m 11.296583,14.382375 h 0.05671 l -0.0043,-0.132079 c -0.01681,0.04658 -0.03511,0.08659 -0.05242,0.132079 z"
       id="path5"
       style="stroke-width:0.30057;stroke:#000000;stroke-opacity:1" /><path
       fill="#bbbcbf"
       d="m 19.439096,22.243114 0.04517,-0.853856 h 2.167531 l -0.03857,0.853856 h -2.174126"
       id="path6"
       style="stroke-width:0.30057" /><path
       style="fill:#000000;stroke-width:0.0643293"
       d="m 28.985525,25.844305 c -0.06106,-0.45111 -0.125338,-0.870858 -0.142839,-0.932775 -0.02963,-0.104831 0.06809,-0.112577 1.420177,-0.112577 h 1.451998 l -0.03781,0.852364 c -0.02079,0.4688 -0.04895,0.888549 -0.06256,0.932775 -0.01869,0.06071 -0.330164,0.08041 -1.27135,0.08041 h -1.246595 z"
       id="path7" /><path
       style="fill:#000000;stroke-width:0.0643293"
       d="m 38.570814,20.730124 c 0.01769,-0.362657 0.04755,-0.811684 0.06636,-0.997839 l 0.03419,-0.338463 2.547824,0.01682 2.547824,0.01682 0.264113,0.385976 c 0.248284,0.362844 0.331453,0.609057 0.450896,1.334833 l 0.0397,0.241235 h -2.991537 -2.991537 z"
       id="path8" /></g></svg>
